<?xml version="1.0" standalone="no"?>
<!DOCTYPE svg PUBLIC "-//W3C//DTD SVG 20010904//EN"
 "http://www.w3.org/TR/2001/REC-SVG-20010904/DTD/svg10.dtd">
<svg version="1.0" xmlns="http://www.w3.org/2000/svg"
 width="80.000000pt" height="80.000000pt" viewBox="0 0 80.000000 80.000000"
 preserveAspectRatio="xMidYMid meet">

<g transform="translate(0.000000,80.000000) scale(0.100000,-0.100000)"
fill="#000000" stroke="none">
<path d="M515 740 c-4 -6 35 -10 109 -10 71 0 116 4 116 10 0 6 -43 10 -109
10 -63 0 -112 -4 -116 -10z"/>
<path d="M430 694 c83 -8 190 -8 190 -1 0 4 -51 6 -112 5 -62 -1 -97 -3 -78
-4z"/>
<path d="M290 650 c0 -6 43 -10 110 -10 67 0 110 4 110 10 0 6 -43 10 -110 10
-67 0 -110 -4 -110 -10z"/>
<path d="M306 495 c-41 -21 -87 -37 -121 -41 -64 -8 -101 -32 -121 -80 -24
-57 -20 -64 34 -64 72 0 101 -36 35 -43 -21 -2 99 -4 267 -4 168 0 288 2 268
4 -67 7 -38 43 34 43 l48 0 0 50 c0 53 -23 90 -56 90 -26 0 -9 25 19 28 33 4
36 22 4 22 -13 0 -32 -9 -42 -20 -25 -27 -42 -25 -126 15 -100 48 -153 48
-243 0z m246 -20 c40 -19 82 -35 95 -35 34 0 75 -19 67 -31 -3 -6 0 -15 7 -20
12 -8 12 -11 -1 -19 -10 -6 -11 -10 -2 -10 6 0 12 -7 12 -15 0 -10 -10 -15
-32 -15 -29 0 -35 5 -50 40 -19 46 -52 59 -98 40 -21 -9 -33 -22 -38 -44 l-8
-31 -101 -3 -101 -3 -12 35 c-13 39 -55 62 -96 52 -18 -5 -31 -19 -42 -46 -15
-35 -21 -40 -49 -40 -37 0 -40 8 -17 51 17 34 67 59 117 59 19 0 60 14 93 32
107 57 142 57 256 3z m-286 -100 c20 -31 15 -53 -18 -78 l-28 -21 -27 21 c-16
11 -29 30 -31 42 -8 55 73 83 104 36z m358 6 c24 -26 17 -60 -16 -84 l-28 -21
-27 21 c-34 25 -39 47 -19 78 20 31 65 33 90 6z m-99 -91 c18 -20 17 -20 -125
-20 -142 0 -143 0 -125 20 16 18 31 20 125 20 94 0 109 -2 125 -20z"/>
<path d="M375 479 c-46 -14 -77 -42 -69 -62 5 -14 21 -17 105 -17 90 0 99 2
110 21 13 26 0 41 -50 58 -39 13 -54 13 -96 0z m104 -20 c56 -20 30 -34 -68
-37 -98 -3 -110 6 -47 34 38 16 73 17 115 3z"/>
<path d="M197 363 c-13 -12 -7 -41 10 -47 21 -8 48 17 40 38 -6 16 -38 22 -50
9z m33 -18 c0 -8 -4 -15 -10 -15 -5 0 -10 7 -10 15 0 8 5 15 10 15 6 0 10 -7
10 -15z"/>
<path d="M554 355 c-4 -9 0 -23 8 -31 20 -20 50 -7 46 20 -4 26 -45 35 -54 11z
m36 -10 c0 -8 -4 -15 -10 -15 -5 0 -10 7 -10 15 0 8 5 15 10 15 6 0 10 -7 10
-15z"/>
<path d="M400 150 c0 -6 43 -10 110 -10 67 0 110 4 110 10 0 6 -43 10 -110 10
-67 0 -110 -4 -110 -10z"/>
<path d="M342 103 c32 -2 84 -2 115 0 32 2 6 3 -57 3 -63 0 -89 -1 -58 -3z"/>
<path d="M180 60 c0 -6 43 -10 110 -10 67 0 110 4 110 10 0 6 -43 10 -110 10
-67 0 -110 -4 -110 -10z"/>
</g>
</svg>
