<?xml version="1.0" standalone="no"?>
<!DOCTYPE svg PUBLIC "-//W3C//DTD SVG 20010904//EN"
 "http://www.w3.org/TR/2001/REC-SVG-20010904/DTD/svg10.dtd">
<svg version="1.0" xmlns="http://www.w3.org/2000/svg"
 width="80.000000pt" height="80.000000pt" viewBox="0 0 80.000000 80.000000"
 preserveAspectRatio="xMidYMid meet">

<g transform="translate(0.000000,80.000000) scale(0.100000,-0.100000)"
fill="#000000" stroke="none">
<path d="M388 703 c-3 -24 -10 -29 -58 -41 -30 -7 -59 -17 -63 -21 -5 -5 6
-62 23 -126 l32 -118 -25 -25 c-24 -23 -31 -25 -118 -23 -67 2 -94 -1 -100
-11 -5 -7 -9 -63 -9 -125 0 -138 3 -143 99 -143 41 0 74 5 86 14 16 12 22 12
41 0 17 -12 63 -14 225 -12 l204 3 0 325 0 325 -167 3 -167 2 -3 -27z m317
-303 l0 -305 -47 -3 c-42 -3 -48 -1 -48 16 0 11 11 27 25 36 14 9 25 24 25 34
0 10 5 23 11 29 14 14 12 214 -2 228 -5 5 -9 -21 -9 -73 0 -48 -4 -82 -10 -82
-5 0 -10 11 -10 25 0 18 -7 26 -25 31 -29 7 -30 10 -10 30 21 21 19 50 -5 74
-25 25 -55 25 -80 0 -24 -24 -25 -48 -4 -78 15 -21 14 -22 -20 -22 l-36 0 0
121 c0 120 0 121 29 150 42 41 98 41 140 -2 17 -17 31 -39 31 -50 0 -10 5 -19
10 -19 23 0 8 52 -25 85 -31 32 -39 35 -94 35 -51 0 -59 -3 -64 -21 -3 -11
-15 -23 -26 -26 -20 -5 -21 -12 -21 -139 0 -112 -2 -134 -15 -134 -13 0 -15
27 -15 185 l0 186 148 -3 147 -3 0 -305z m-315 225 c0 -14 -4 -25 -10 -25 -5
0 -10 -8 -10 -17 0 -9 -7 -24 -16 -34 -14 -15 -13 -24 6 -97 11 -44 23 -88 26
-97 5 -13 2 -16 -11 -14 -14 3 -27 36 -56 144 -21 76 -37 140 -36 141 5 5 73
22 90 23 12 1 17 -7 17 -24z m0 -130 c0 -25 -2 -45 -5 -45 -7 0 -25 73 -19 82
13 21 24 4 24 -37z m194 -71 c9 -8 16 -19 16 -24 0 -13 -30 -40 -44 -40 -17 0
-36 21 -36 40 0 19 19 40 36 40 7 0 20 -7 28 -16z m-102 -104 c131 0 138 -1
138 -20 0 -18 -7 -20 -74 -20 -114 0 -104 -19 11 -22 84 -3 98 -5 101 -20 3
-16 -6 -18 -92 -18 -52 0 -98 -4 -101 -10 -4 -6 23 -10 72 -10 83 0 112 -12
92 -37 -8 -9 -37 -13 -91 -13 -50 0 -77 -4 -73 -10 3 -5 33 -10 66 -10 52 0
60 -2 57 -17 -3 -16 -19 -18 -134 -21 -120 -2 -133 -1 -157 18 -26 20 -27 26
-27 113 0 86 2 93 28 120 l27 29 9 -26 10 -26 138 0z m-324 -61 c4 -104 22
-114 22 -13 0 45 2 83 5 86 3 2 19 3 35 0 l31 -4 -3 -117 -3 -116 -75 0 -75 0
-3 109 c-3 115 3 134 40 131 21 -1 23 -7 26 -76z"/>
<path d="M660 490 c0 -5 5 -10 11 -10 5 0 7 5 4 10 -3 6 -8 10 -11 10 -2 0 -4
-4 -4 -10z"/>
</g>
</svg>
