<?xml version="1.0" standalone="no"?>
<!DOCTYPE svg PUBLIC "-//W3C//DTD SVG 20010904//EN"
 "http://www.w3.org/TR/2001/REC-SVG-20010904/DTD/svg10.dtd">
<svg version="1.0" xmlns="http://www.w3.org/2000/svg"
 width="80.000000pt" height="80.000000pt" viewBox="0 0 80.000000 80.000000"
 preserveAspectRatio="xMidYMid meet">

<g transform="translate(0.000000,80.000000) scale(0.100000,-0.100000)"
fill="#000000" stroke="none">
<path d="M229 715 c-28 -9 -63 -32 -88 -56 -106 -106 -83 -280 47 -356 62 -37
157 -40 214 -6 29 17 39 19 47 9 6 -7 8 -16 4 -20 -4 -4 38 -52 92 -106 101
-101 133 -118 163 -88 30 30 13 62 -87 162 -57 57 -104 96 -110 92 -19 -12
-23 21 -7 53 91 175 -85 377 -275 316z m134 -16 c123 -34 183 -185 120 -301
-70 -129 -248 -145 -341 -32 -57 69 -66 139 -28 220 45 98 144 143 249 113z
m118 -372 c-1 -12 -15 -9 -19 4 -3 6 1 10 8 8 6 -3 11 -8 11 -12z m133 -94
c53 -54 96 -103 96 -110 0 -7 -10 -17 -21 -24 -19 -10 -31 -2 -117 82 -53 52
-98 95 -101 97 -4 2 39 52 44 52 1 0 46 -44 99 -97z"/>
<path d="M218 660 c-103 -55 -130 -191 -56 -276 42 -47 77 -64 138 -64 101 0
170 61 178 156 6 70 -2 96 -40 140 -57 65 -146 83 -220 44z m162 -15 c59 -30
95 -104 85 -174 -10 -64 -72 -126 -136 -136 -105 -16 -191 60 -191 166 0 124
128 201 242 144z"/>
<path d="M264 630 c-32 -13 -54 -50 -54 -90 0 -37 35 -116 70 -160 l20 -25 22
25 c39 46 80 147 73 179 -12 56 -80 93 -131 71z m91 -35 c32 -31 31 -63 -2
-131 -28 -58 -47 -79 -61 -70 -5 3 -23 34 -41 70 -24 47 -32 72 -27 91 16 64
86 86 131 40z"/>
<path d="M262 578 c-18 -18 -14 -53 8 -73 44 -40 107 25 69 71 -14 17 -60 19
-77 2z m63 -14 c18 -18 16 -33 -7 -47 -35 -22 -66 21 -36 51 16 16 23 15 43
-4z"/>
<path d="M580 212 c0 -14 56 -63 63 -55 4 3 -5 19 -20 35 -27 28 -43 35 -43
20z"/>
<path d="M660 130 c0 -5 5 -10 10 -10 6 0 10 5 10 10 0 6 -4 10 -10 10 -5 0
-10 -4 -10 -10z"/>
<path d="M653 719 c-34 -13 -39 -51 -12 -99 13 -22 28 -39 33 -37 6 2 21 23
33 46 17 33 20 48 12 62 -14 27 -41 38 -66 28z m46 -23 c14 -17 5 -60 -16 -77
-16 -14 -28 -2 -39 39 -11 40 30 68 55 38z"/>
<path d="M664 535 c4 -24 16 -30 16 -7 0 12 -4 22 -9 22 -5 0 -8 -7 -7 -15z"/>
<path d="M663 465 c0 -8 4 -15 9 -15 4 0 8 7 8 15 0 8 -4 15 -8 15 -5 0 -9 -7
-9 -15z"/>
<path d="M580 410 c0 -5 9 -10 20 -10 11 0 20 5 20 10 0 6 -9 10 -20 10 -11 0
-20 -4 -20 -10z"/>
<path d="M640 410 c0 -5 9 -10 20 -10 11 0 20 5 20 10 0 6 -9 10 -20 10 -11 0
-20 -4 -20 -10z"/>
<path d="M84 205 c-15 -23 -15 -27 6 -70 12 -25 27 -45 34 -45 14 0 56 70 56
93 0 47 -69 63 -96 22z m70 -8 c7 -12 5 -26 -8 -54 -17 -36 -18 -37 -32 -18
-26 35 -29 67 -8 82 21 16 34 13 48 -10z"/>
<path d="M120 179 c0 -5 5 -7 10 -4 6 3 10 8 10 11 0 2 -4 4 -10 4 -5 0 -10
-5 -10 -11z"/>
<path d="M290 170 c0 -11 5 -20 10 -20 6 0 10 9 10 20 0 11 -4 20 -10 20 -5 0
-10 -9 -10 -20z"/>
<path d="M290 105 c0 -8 5 -15 10 -15 6 0 10 7 10 15 0 8 -4 15 -10 15 -5 0
-10 -7 -10 -15z"/>
<path d="M168 93 c6 -2 18 -2 25 0 6 3 1 5 -13 5 -14 0 -19 -2 -12 -5z"/>
<path d="M238 93 c6 -2 18 -2 25 0 6 3 1 5 -13 5 -14 0 -19 -2 -12 -5z"/>
</g>
</svg>
