<?xml version="1.0" standalone="no"?>
<!DOCTYPE svg PUBLIC "-//W3C//DTD SVG 20010904//EN"
 "http://www.w3.org/TR/2001/REC-SVG-20010904/DTD/svg10.dtd">
<svg version="1.0" xmlns="http://www.w3.org/2000/svg"
 width="80.000000pt" height="80.000000pt" viewBox="0 0 80.000000 80.000000"
 preserveAspectRatio="xMidYMid meet">

<g transform="translate(0.000000,80.000000) scale(0.100000,-0.100000)"
fill="#000000" stroke="none">
<path d="M220 665 c-48 -22 -98 -72 -105 -107 -6 -24 -11 -28 -40 -28 -40 0
-65 -22 -65 -56 0 -20 5 -24 30 -24 40 0 49 -24 21 -54 -18 -20 -21 -34 -21
-119 0 -91 1 -97 24 -112 31 -21 74 -10 88 21 11 24 13 24 171 24 l159 0 27
-29 c105 -113 293 -16 265 137 -5 25 -20 50 -50 79 -24 24 -44 45 -44 48 0 3
14 5 30 5 26 0 30 4 30 28 0 37 -17 52 -56 52 -28 0 -35 6 -54 46 -14 28 -38
56 -63 72 -38 26 -48 27 -176 30 -106 2 -144 -1 -171 -13z m320 -27 c49 -25
90 -84 90 -130 l0 -28 -256 0 -257 0 6 36 c9 51 45 101 92 124 33 17 60 20
160 20 105 0 126 -3 165 -22z m-440 -153 l0 -25 275 0 275 0 0 26 c0 23 3 25
33 22 24 -2 32 -8 32 -23 0 -15 -6 -19 -23 -17 -13 2 -25 -3 -28 -12 -4 -10
-19 -16 -40 -16 -89 0 -157 -73 -153 -161 l3 -51 -181 2 c-116 0 -184 -3 -188
-10 -3 -5 1 -10 9 -10 8 0 17 -4 21 -9 8 -14 -32 -33 -55 -26 -18 6 -20 16
-20 100 0 80 3 96 18 104 10 6 17 20 16 38 -1 40 -11 53 -40 53 -13 0 -24 6
-24 13 0 20 10 27 42 27 23 0 28 -4 28 -25z m591 -88 c89 -59 86 -172 -4 -227
-86 -53 -197 12 -197 115 0 106 115 170 201 112z"/>
<path d="M410 568 c-35 -29 -58 -54 -52 -56 10 -3 47 23 125 89 5 4 5 9 0 12
-5 3 -38 -17 -73 -45z"/>
<path d="M300 551 c-19 -16 -32 -32 -28 -36 7 -7 78 45 78 58 0 14 -16 7 -50
-22z"/>
<path d="M120 340 c0 -6 10 -24 22 -40 19 -27 28 -30 75 -30 29 0 53 3 53 7 0
3 -11 21 -26 40 -22 30 -30 33 -75 33 -27 0 -49 -5 -49 -10z m98 -22 c19 -19
14 -28 -18 -28 -19 0 -33 7 -40 20 -10 18 -8 20 18 20 15 0 33 -5 40 -12z"/>
<path d="M320 290 c0 -6 28 -10 65 -10 37 0 65 4 65 10 0 6 -28 10 -65 10 -37
0 -65 -4 -65 -10z"/>
<path d="M644 304 l-38 -47 -17 22 c-20 24 -29 27 -29 8 0 -8 11 -24 24 -36
l23 -22 47 54 c25 30 46 57 46 61 0 17 -21 2 -56 -40z"/>
</g>
</svg>
